{
  "accessors": [
    {
      "bufferView": 2,
      "componentType": 5126,
      "count": 34278,
      "max": [
        -0.0028240000829100609,
        0.40972700715065002,
        0.27361100912094116
      ],
      "min": [
        -0.012564999982714653,
        -0.41633599996566772,
        -0.26781898736953735
      ],
      "type": "VEC3"
    },
    {
      "bufferView": 2,
      "byteOffset": 411336,
      "componentType": 5126,
      "count": 34278,
      "max": [
        0.99999880790710449,
        0.99224460124969482,
        0.99981039762496948
      ],
      "min": [
        -1,
        -0.99970227479934692,
        -0.9998549222946167
      ],
      "type": "VEC3"
    },
    {
      "bufferView": 3,
      "componentType": 5126,
      "count": 34278,
      "max": [
        0.98950332403182983,
        1,
        1,
        1
      ],
      "min": [
        -0.99856072664260864,
        -0.99999988079071045,
        -0.9999995231628418,
        -1
      ],
      "type": "VEC4"
    },
    {
      "bufferView": 1,
      "componentType": 5126,
      "count": 34278,
      "max": [
        0.99998700618743896,
        0.97099798917770386
      ],
      "min": [
        8.9000001025851816e-05,
        3.8999998650979251e-05
      ],
      "type": "VEC2"
    },
    {
      "bufferView": 0,
      "componentType": 5125,
      "count": 192000,
      "max": [
        34277
      ],
      "min": [
        0
      ],
      "type": "SCALAR"
    }
  ],
  "asset": {
    "extras": {
      "author": "Minneapolis Institute of Art (https://sketchfab.com/artsmia)",
      "license": "CC0-1.0 (http://creativecommons.org/publicdomain/zero/1.0/)",
      "source": "https://sketchfab.com/3d-models/jmw-turners-borrowdale-rosthwaite-bridge-b076171ae027443895407472308224ee",
      "title": "JMW Turner's 'Borrowdale, Rosthwaite Bridge...'"
    },
    "generator": "Sketchfab-7.80.0",
    "version": "2.0"
  },
  "bufferViews": [
    {
      "buffer": 0,
      "byteLength": 768000,
      "byteOffset": 0,
      "name": "floatBufferViews",
      "target": 34963
    },
    {
      "buffer": 0,
      "byteLength": 274224,
      "byteOffset": 768000,
      "byteStride": 8,
      "name": "floatBufferViews",
      "target": 34962
    },
    {
      "buffer": 0,
      "byteLength": 822672,
      "byteOffset": 1042224,
      "byteStride": 12,
      "name": "floatBufferViews",
      "target": 34962
    },
    {
      "buffer": 0,
      "byteLength": 548448,
      "byteOffset": 1864896,
      "byteStride": 16,
      "name": "floatBufferViews",
      "target": 34962
    }
  ],
  "buffers": [
    {
      "byteLength": 2413344,
      "uri": "scene.bin"
    }
  ],
  "images": [
    {
      "uri": "textures/181106_mia335_013134_201_64Kmesh_OBJ_baseColor.jpeg"
    },
    {
      "uri": "textures/181106_mia335_013134_201_64Kmesh_OBJ_normal.png"
    }
  ],
  "materials": [
    {
      "doubleSided": true,
      "name": "181106_mia335_013134_201_64Kmesh_OBJ",
      "normalTexture": {
        "index": 1,
        "scale": 1,
        "texCoord": 0
      },
      "pbrMetallicRoughness": {
        "baseColorFactor": [
          0.97691515809999996,
          0.97691515809999996,
          0.97691515809999996,
          1
        ],
        "baseColorTexture": {
          "index": 0,
          "texCoord": 0
        },
        "metallicFactor": 0,
        "roughnessFactor": 1
      }
    }
  ],
  "meshes": [
    {
      "primitives": [
        {
          "attributes": {
            "NORMAL": 1,
            "POSITION": 0,
            "TANGENT": 2,
            "TEXCOORD_0": 3
          },
          "indices": 4,
          "material": 0,
          "mode": 4
        }
      ]
    }
  ],
  "nodes": [
    {
      "children": [
        1
      ],
      "name": "RootNode (gltf orientation matrix)",
      "rotation": [
        -0.70710678118654746,
        -0,
        -0,
        0.70710678118654757
      ]
    },
    {
      "children": [
        2
      ],
      "matrix": [
        0.0085226614028215408,
        -0.99996370077133179,
        0,
        0,
        0.99996370077133179,
        0.0085226614028215408,
        0,
        0,
        0,
        0,
        1,
        0,
        -0.0042974180541932583,
        -0.012339279055595398,
        0,
        1
      ],
      "name": "RootNode (model correction matrix)"
    },
    {
      "children": [
        3
      ],
      "name": "Turner1Mmapped3.obj.cleaner.materialmerger.gles"
    },
    {
      "mesh": 0,
      "name": ""
    }
  ],
  "samplers": [
    {
      "magFilter": 9729,
      "minFilter": 9987,
      "wrapS": 10497,
      "wrapT": 10497
    }
  ],
  "scene": 0,
  "scenes": [
    {
      "name": "OSG_Scene",
      "nodes": [
        0
      ]
    }
  ],
  "textures": [
    {
      "sampler": 0,
      "source": 0
    },
    {
      "sampler": 0,
      "source": 1
    }
  ]
}

