{
	"asset":{
		"generator":"Khronos glTF Blender I/O v4.2.70",
		"version":"2.0"
	},
	"scene":0,
	"scenes":[
		{
			"name":"Scene",
			"nodes":[
				0
			]
		}
	],
	"nodes":[
		{
			"mesh":0,
			"name":"Cube.005",
			"translation":[
				4.164358139038086,
				4.61561918258667,
				-0.8371556401252747
			]
		}
	],
	"materials":[
		{
			"doubleSided":true,
			"name":"suelo4.001",
			"pbrMetallicRoughness":{
				"baseColorTexture":{
					"index":0
				},
				"metallicFactor":0,
				"roughnessFactor":0.5
			}
		},
		{
			"doubleSided":true,
			"name":"Material.001",
			"pbrMetallicRoughness":{
				"metallicFactor":0,
				"roughnessFactor":0.5
			}
		},
		{
			"doubleSided":true,
			"name":"Material.002",
			"pbrMetallicRoughness":{
				"metallicFactor":0,
				"roughnessFactor":0.5
			}
		},
		{
			"alphaMode":"BLEND",
			"doubleSided":true,
			"name":"vidrio",
			"pbrMetallicRoughness":{
				"baseColorFactor":[
					0.41857287287712097,
					0.598534882068634,
					0.800054669380188,
					0.5678392052650452
				],
				"metallicFactor":0,
				"roughnessFactor":0.5
			}
		},
		{
			"doubleSided":true,
			"name":"borde vidrio",
			"pbrMetallicRoughness":{
				"baseColorFactor":[
					0.15973854064941406,
					0.1649545431137085,
					0.1734723448753357,
					1
				],
				"metallicFactor":0,
				"roughnessFactor":0.5
			}
		}
	],
	"meshes":[
		{
			"name":"Cube.005",
			"primitives":[
				{
					"attributes":{
						"POSITION":0,
						"NORMAL":1,
						"TEXCOORD_0":2
					},
					"indices":3,
					"material":0
				},
				{
					"attributes":{
						"POSITION":4,
						"NORMAL":5,
						"TEXCOORD_0":6
					},
					"indices":7,
					"material":1
				},
				{
					"attributes":{
						"POSITION":8,
						"NORMAL":9,
						"TEXCOORD_0":10
					},
					"indices":11,
					"material":2
				},
				{
					"attributes":{
						"POSITION":12,
						"NORMAL":13,
						"TEXCOORD_0":14
					},
					"indices":15,
					"material":3
				},
				{
					"attributes":{
						"POSITION":16,
						"NORMAL":17,
						"TEXCOORD_0":18
					},
					"indices":19,
					"material":4
				}
			]
		}
	],
	"textures":[
		{
			"sampler":0,
			"source":0
		}
	],
	"images":[
		{
			"mimeType":"image/png",
			"name":"suelo4",
			"uri":"suelo4.png"
		}
	],
	"accessors":[
		{
			"bufferView":0,
			"componentType":5126,
			"count":51,
			"max":[
				32.99488067626953,
				-10.374939918518066,
				33.46113586425781
			],
			"min":[
				-33.196983337402344,
				-10.420150756835938,
				-33.464962005615234
			],
			"type":"VEC3"
		},
		{
			"bufferView":1,
			"componentType":5126,
			"count":51,
			"type":"VEC3"
		},
		{
			"bufferView":2,
			"componentType":5126,
			"count":51,
			"type":"VEC2"
		},
		{
			"bufferView":3,
			"componentType":5123,
			"count":99,
			"type":"SCALAR"
		},
		{
			"bufferView":4,
			"componentType":5126,
			"count":10,
			"max":[
				-3.958958387374878,
				22.779888153076172,
				-2.014227867126465
			],
			"min":[
				-33.18800735473633,
				-10.408984184265137,
				-2.060842514038086
			],
			"type":"VEC3"
		},
		{
			"bufferView":5,
			"componentType":5126,
			"count":10,
			"type":"VEC3"
		},
		{
			"bufferView":6,
			"componentType":5126,
			"count":10,
			"type":"VEC2"
		},
		{
			"bufferView":7,
			"componentType":5123,
			"count":12,
			"type":"SCALAR"
		},
		{
			"bufferView":8,
			"componentType":5126,
			"count":158,
			"max":[
				32.99488067626953,
				22.79052734375,
				33.49696731567383
			],
			"min":[
				-33.196983337402344,
				-10.420150756835938,
				-33.65117645263672
			],
			"type":"VEC3"
		},
		{
			"bufferView":9,
			"componentType":5126,
			"count":158,
			"type":"VEC3"
		},
		{
			"bufferView":10,
			"componentType":5126,
			"count":158,
			"type":"VEC2"
		},
		{
			"bufferView":11,
			"componentType":5123,
			"count":318,
			"type":"SCALAR"
		},
		{
			"bufferView":12,
			"componentType":5126,
			"count":20,
			"max":[
				29.485061645507812,
				16.937898635864258,
				33.494388580322266
			],
			"min":[
				-29.510570526123047,
				-6.657735347747803,
				-33.648902893066406
			],
			"type":"VEC3"
		},
		{
			"bufferView":13,
			"componentType":5126,
			"count":20,
			"type":"VEC3"
		},
		{
			"bufferView":14,
			"componentType":5126,
			"count":20,
			"type":"VEC2"
		},
		{
			"bufferView":15,
			"componentType":5123,
			"count":30,
			"type":"SCALAR"
		},
		{
			"bufferView":16,
			"componentType":5126,
			"count":72,
			"max":[
				30.224037170410156,
				17.731191635131836,
				33.49696731567383
			],
			"min":[
				-30.390785217285156,
				-7.227573394775391,
				-33.65117645263672
			],
			"type":"VEC3"
		},
		{
			"bufferView":17,
			"componentType":5126,
			"count":72,
			"type":"VEC3"
		},
		{
			"bufferView":18,
			"componentType":5126,
			"count":72,
			"type":"VEC2"
		},
		{
			"bufferView":19,
			"componentType":5123,
			"count":120,
			"type":"SCALAR"
		}
	],
	"bufferViews":[
		{
			"buffer":0,
			"byteLength":612,
			"byteOffset":0,
			"target":34962
		},
		{
			"buffer":0,
			"byteLength":612,
			"byteOffset":612,
			"target":34962
		},
		{
			"buffer":0,
			"byteLength":408,
			"byteOffset":1224,
			"target":34962
		},
		{
			"buffer":0,
			"byteLength":198,
			"byteOffset":1632,
			"target":34963
		},
		{
			"buffer":0,
			"byteLength":120,
			"byteOffset":1832,
			"target":34962
		},
		{
			"buffer":0,
			"byteLength":120,
			"byteOffset":1952,
			"target":34962
		},
		{
			"buffer":0,
			"byteLength":80,
			"byteOffset":2072,
			"target":34962
		},
		{
			"buffer":0,
			"byteLength":24,
			"byteOffset":2152,
			"target":34963
		},
		{
			"buffer":0,
			"byteLength":1896,
			"byteOffset":2176,
			"target":34962
		},
		{
			"buffer":0,
			"byteLength":1896,
			"byteOffset":4072,
			"target":34962
		},
		{
			"buffer":0,
			"byteLength":1264,
			"byteOffset":5968,
			"target":34962
		},
		{
			"buffer":0,
			"byteLength":636,
			"byteOffset":7232,
			"target":34963
		},
		{
			"buffer":0,
			"byteLength":240,
			"byteOffset":7868,
			"target":34962
		},
		{
			"buffer":0,
			"byteLength":240,
			"byteOffset":8108,
			"target":34962
		},
		{
			"buffer":0,
			"byteLength":160,
			"byteOffset":8348,
			"target":34962
		},
		{
			"buffer":0,
			"byteLength":60,
			"byteOffset":8508,
			"target":34963
		},
		{
			"buffer":0,
			"byteLength":864,
			"byteOffset":8568,
			"target":34962
		},
		{
			"buffer":0,
			"byteLength":864,
			"byteOffset":9432,
			"target":34962
		},
		{
			"buffer":0,
			"byteLength":576,
			"byteOffset":10296,
			"target":34962
		},
		{
			"buffer":0,
			"byteLength":240,
			"byteOffset":10872,
			"target":34963
		}
	],
	"samplers":[
		{
			"magFilter":9729,
			"minFilter":9987
		}
	],
	"buffers":[
		{
			"byteLength":11112,
			"uri":"museo.bin"
		}
	]
}
