{
  "accessors": [
    {
      "bufferView": 2,
      "componentType": 5126,
      "count": 65534,
      "max": [
        0.081855997443199158,
        0.050241000950336456,
        -1.5694760084152222
      ],
      "min": [
        -2.2489500045776367,
        -0.069473996758460999,
        -3.8333621025085449
      ],
      "type": "VEC3"
    },
    {
      "bufferView": 2,
      "byteOffset": 786408,
      "componentType": 5126,
      "count": 65534,
      "max": [
        0.64617866277694702,
        0.99993264675140381,
        0.96469539403915405
      ],
      "min": [
        -0.54551482200622559,
        -0.99999988079071045,
        -0.95056170225143433
      ],
      "type": "VEC3"
    },
    {
      "bufferView": 1,
      "componentType": 5126,
      "count": 65534,
      "max": [
        0.38189300894737244,
        0.58962100744247437
      ],
      "min": [
        0.25881600379943848,
        0.44878700375556946
      ],
      "type": "VEC2"
    },
    {
      "bufferView": 0,
      "componentType": 5125,
      "count": 66150,
      "max": [
        65533
      ],
      "min": [
        0
      ],
      "type": "SCALAR"
    },
    {
      "bufferView": 2,
      "byteOffset": 1572816,
      "componentType": 5126,
      "count": 65532,
      "max": [
        1.1502679586410522,
        0.030608000233769417,
        -0.5688130259513855
      ],
      "min": [
        -2.2489509582519531,
        -0.078005999326705933,
        -3.8324909210205078
      ],
      "type": "VEC3"
    },
    {
      "bufferView": 2,
      "byteOffset": 2359200,
      "componentType": 5126,
      "count": 65532,
      "max": [
        0.79019349813461304,
        0.9998437762260437,
        0.84590041637420654
      ],
      "min": [
        -0.79049897193908691,
        -1,
        -0.64862370491027832
      ],
      "type": "VEC3"
    },
    {
      "bufferView": 1,
      "byteOffset": 524272,
      "componentType": 5126,
      "count": 65532,
      "max": [
        0.36004799604415894,
        0.59959399700164795
      ],
      "min": [
        0.19989700615406036,
        0.39663600921630859
      ],
      "type": "VEC2"
    },
    {
      "bufferView": 0,
      "byteOffset": 264600,
      "componentType": 5125,
      "count": 65808,
      "max": [
        65531
      ],
      "min": [
        0
      ],
      "type": "SCALAR"
    },
    {
      "bufferView": 2,
      "byteOffset": 3145584,
      "componentType": 5126,
      "count": 65534,
      "max": [
        1.8317229747772217,
        0.03639800101518631,
        0.19112500548362732
      ],
      "min": [
        -2.2489519119262695,
        -0.061388999223709106,
        -3.8323678970336914
      ],
      "type": "VEC3"
    },
    {
      "bufferView": 2,
      "byteOffset": 3931992,
      "componentType": 5126,
      "count": 65534,
      "max": [
        0.28879418969154358,
        0.99973827600479126,
        0.75070387125015259
      ],
      "min": [
        -0.7911413311958313,
        -1,
        -0.89160174131393433
      ],
      "type": "VEC3"
    },
    {
      "bufferView": 1,
      "byteOffset": 1048528,
      "componentType": 5126,
      "count": 65534,
      "max": [
        0.35063201189041138,
        0.60544502735137939
      ],
      "min": [
        0.16230599582195282,
        0.35760700702667236
      ],
      "type": "VEC2"
    },
    {
      "bufferView": 0,
      "byteOffset": 527832,
      "componentType": 5125,
      "count": 65772,
      "max": [
        65533
      ],
      "min": [
        0
      ],
      "type": "SCALAR"
    },
    {
      "bufferView": 2,
      "byteOffset": 4718400,
      "componentType": 5126,
      "count": 65533,
      "max": [
        2.4301431179046631,
        0.033082999289035797,
        0.80633699893951416
      ],
      "min": [
        -2.2489519119262695,
        -0.07100299745798111,
        -3.832197904586792
      ],
      "type": "VEC3"
    },
    {
      "bufferView": 2,
      "byteOffset": 5504796,
      "componentType": 5126,
      "count": 65533,
      "max": [
        0.71268486976623535,
        0.99935901165008545,
        0.70229727029800415
      ],
      "min": [
        -0.75082540512084961,
        -0.99999988079071045,
        -0.81540322303771973
      ],
      "type": "VEC3"
    },
    {
      "bufferView": 1,
      "byteOffset": 1572800,
      "componentType": 5126,
      "count": 65533,
      "max": [
        0.34312799572944641,
        0.61141401529312134
      ],
      "min": [
        0.12882600724697113,
        0.3261989951133728
      ],
      "type": "VEC2"
    },
    {
      "bufferView": 0,
      "byteOffset": 790920,
      "componentType": 5125,
      "count": 65727,
      "max": [
        65532
      ],
      "min": [
        0
      ],
      "type": "SCALAR"
    },
    {
      "bufferView": 2,
      "byteOffset": 6291192,
      "componentType": 5126,
      "count": 65533,
      "max": [
        2.4480381011962891,
        0.033312998712062836,
        1.4434150457382202
      ],
      "min": [
        -2.2489519119262695,
        -0.071391001343727112,
        -3.8322141170501709
      ],
      "type": "VEC3"
    },
    {
      "bufferView": 2,
      "byteOffset": 7077588,
      "componentType": 5126,
      "count": 65533,
      "max": [
        0.69608670473098755,
        0.99998354911804199,
        0.75320994853973389
      ],
      "min": [
        -0.783275306224823,
        -1,
        -0.84001117944717407
      ],
      "type": "VEC3"
    },
    {
      "bufferView": 1,
      "byteOffset": 2097064,
      "componentType": 5126,
      "count": 65533,
      "max": [
        0.33704501390457153,
        0.61356300115585327
      ],
      "min": [
        0.11359900236129761,
        0.29520401358604431
      ],
      "type": "VEC2"
    },
    {
      "bufferView": 0,
      "byteOffset": 1053828,
      "componentType": 5125,
      "count": 65991,
      "max": [
        65532
      ],
      "min": [
        0
      ],
      "type": "SCALAR"
    },
    {
      "bufferView": 2,
      "byteOffset": 7863984,
      "componentType": 5126,
      "count": 65533,
      "max": [
        2.4480390548706055,
        0.041487999260425568,
        1.8276950120925903
      ],
      "min": [
        -2.248953104019165,
        -0.058233000338077545,
        -1.5325490236282349
      ],
      "type": "VEC3"
    },
    {
      "bufferView": 2,
      "byteOffset": 8650380,
      "componentType": 5126,
      "count": 65533,
      "max": [
        0.78663504123687744,
        0.99995577335357666,
        0.95320701599121094
      ],
      "min": [
        -0.64222043752670288,
        -0.99999988079071045,
        -0.94298768043518066
      ],
      "type": "VEC3"
    },
    {
      "bufferView": 1,
      "byteOffset": 2621328,
      "componentType": 5126,
      "count": 65533,
      "max": [
        0.33080899715423584,
        0.4894070029258728
      ],
      "min": [
        0.10353700071573257,
        0.27474001049995422
      ],
      "type": "VEC2"
    },
    {
      "bufferView": 0,
      "byteOffset": 1317792,
      "componentType": 5125,
      "count": 65955,
      "max": [
        65532
      ],
      "min": [
        0
      ],
      "type": "SCALAR"
    },
    {
      "bufferView": 2,
      "byteOffset": 9436776,
      "componentType": 5126,
      "count": 47997,
      "max": [
        2.4480400085449219,
        0.02448200061917305,
        1.8280559778213501
      ],
      "min": [
        -1.0709530115127563,
        -0.050686001777648926,
        -0.28683900833129883
      ],
      "type": "VEC3"
    },
    {
      "bufferView": 2,
      "byteOffset": 10012740,
      "componentType": 5126,
      "count": 47997,
      "max": [
        0.5081864595413208,
        0.9997064471244812,
        0.8239825963973999
      ],
      "min": [
        -0.47199004888534546,
        -0.99999988079071045,
        -0.94518852233886719
      ],
      "type": "VEC3"
    },
    {
      "bufferView": 1,
      "byteOffset": 3145592,
      "componentType": 5126,
      "count": 47997,
      "max": [
        0.2675049901008606,
        0.42317900061607361
      ],
      "min": [
        0.089449003338813782,
        0.28555798530578613
      ],
      "type": "VEC2"
    },
    {
      "bufferView": 0,
      "byteOffset": 1581612,
      "componentType": 5125,
      "count": 48639,
      "max": [
        47996
      ],
      "min": [
        0
      ],
      "type": "SCALAR"
    }
  ],
  "asset": {
    "extras": {
      "author": "Morbase | Museu Virtual (https://sketchfab.com/carpetudo)",
      "license": "CC0-1.0 (http://creativecommons.org/publicdomain/zero/1.0/)",
      "source": "https://sketchfab.com/3d-models/painel-central-da-ermida-de-sao-pedro-da-ribeira-33658ec32d684a09bfc31f2f9a90321b",
      "title": "Painel Central da Ermida de São Pedro da Ribeira"
    },
    "generator": "Sketchfab-7.80.0",
    "version": "2.0"
  },
  "bufferViews": [
    {
      "buffer": 0,
      "byteLength": 1776168,
      "byteOffset": 0,
      "name": "floatBufferViews",
      "target": 34963
    },
    {
      "buffer": 0,
      "byteLength": 3529568,
      "byteOffset": 1776168,
      "byteStride": 8,
      "name": "floatBufferViews",
      "target": 34962
    },
    {
      "buffer": 0,
      "byteLength": 10588704,
      "byteOffset": 5305736,
      "byteStride": 12,
      "name": "floatBufferViews",
      "target": 34962
    }
  ],
  "buffers": [
    {
      "byteLength": 15894440,
      "uri": "scene.bin"
    }
  ],
  "extensionsUsed": [
    "KHR_materials_unlit"
  ],
  "images": [
    {
      "uri": "textures/SaoPedro_baseColor.jpeg"
    }
  ],
  "materials": [
    {
      "doubleSided": true,
      "emissiveFactor": [
        0,
        0,
        0
      ],
      "extensions": {
        "KHR_materials_unlit": {}
      },
      "name": "SaoPedro",
      "pbrMetallicRoughness": {
        "baseColorFactor": [
          1,
          1,
          1,
          1
        ],
        "baseColorTexture": {
          "index": 0,
          "texCoord": 0
        },
        "metallicFactor": 0,
        "roughnessFactor": 1
      }
    }
  ],
  "meshes": [
    {
      "primitives": [
        {
          "attributes": {
            "NORMAL": 1,
            "POSITION": 0,
            "TEXCOORD_0": 2
          },
          "indices": 3,
          "material": 0,
          "mode": 4
        }
      ]
    },
    {
      "primitives": [
        {
          "attributes": {
            "NORMAL": 5,
            "POSITION": 4,
            "TEXCOORD_0": 6
          },
          "indices": 7,
          "material": 0,
          "mode": 4
        }
      ]
    },
    {
      "primitives": [
        {
          "attributes": {
            "NORMAL": 9,
            "POSITION": 8,
            "TEXCOORD_0": 10
          },
          "indices": 11,
          "material": 0,
          "mode": 4
        }
      ]
    },
    {
      "primitives": [
        {
          "attributes": {
            "NORMAL": 13,
            "POSITION": 12,
            "TEXCOORD_0": 14
          },
          "indices": 15,
          "material": 0,
          "mode": 4
        }
      ]
    },
    {
      "primitives": [
        {
          "attributes": {
            "NORMAL": 17,
            "POSITION": 16,
            "TEXCOORD_0": 18
          },
          "indices": 19,
          "material": 0,
          "mode": 4
        }
      ]
    },
    {
      "primitives": [
        {
          "attributes": {
            "NORMAL": 21,
            "POSITION": 20,
            "TEXCOORD_0": 22
          },
          "indices": 23,
          "material": 0,
          "mode": 4
        }
      ]
    },
    {
      "primitives": [
        {
          "attributes": {
            "NORMAL": 25,
            "POSITION": 24,
            "TEXCOORD_0": 26
          },
          "indices": 27,
          "material": 0,
          "mode": 4
        }
      ]
    }
  ],
  "nodes": [
    {
      "children": [
        1
      ],
      "name": "RootNode (gltf orientation matrix)",
      "rotation": [
        -0.70710678118654746,
        -0,
        -0,
        0.70710678118654757
      ]
    },
    {
      "children": [
        2
      ],
      "name": "RootNode (model correction matrix)"
    },
    {
      "children": [
        3,
        4,
        5,
        6,
        7,
        8,
        9
      ],
      "name": "SaoPedroSkechfab.obj.cleaner"
    },
    {
      "mesh": 0,
      "name": ""
    },
    {
      "mesh": 1,
      "name": ""
    },
    {
      "mesh": 2,
      "name": ""
    },
    {
      "mesh": 3,
      "name": ""
    },
    {
      "mesh": 4,
      "name": ""
    },
    {
      "mesh": 5,
      "name": ""
    },
    {
      "mesh": 6,
      "name": ""
    }
  ],
  "samplers": [
    {
      "magFilter": 9729,
      "minFilter": 9987,
      "wrapS": 10497,
      "wrapT": 10497
    }
  ],
  "scene": 0,
  "scenes": [
    {
      "name": "OSG_Scene",
      "nodes": [
        0
      ]
    }
  ],
  "textures": [
    {
      "sampler": 0,
      "source": 0
    }
  ]
}

