{
  "accessors": [
    {
      "bufferView": 2,
      "componentType": 5126,
      "count": 65532,
      "max": [
        0.18030799925327301,
        -0.77767902612686157,
        0.2742609977722168
      ],
      "min": [
        -0.36416599154472351,
        -0.83106899261474609,
        -0.40087398886680603
      ],
      "type": "VEC3"
    },
    {
      "bufferView": 2,
      "byteOffset": 786384,
      "componentType": 5126,
      "count": 65532,
      "max": [
        0.99927085638046265,
        1,
        0.99922811985015869
      ],
      "min": [
        -0.98229777812957764,
        -0.99992787837982178,
        -0.99999374151229858
      ],
      "type": "VEC3"
    },
    {
      "bufferView": 1,
      "componentType": 5126,
      "count": 65532,
      "max": [
        0.99946302175521851,
        0.99962800741195679
      ],
      "min": [
        0.0029929999727755785,
        0.0017350000562146306
      ],
      "type": "VEC2"
    },
    {
      "bufferView": 0,
      "componentType": 5125,
      "count": 359736,
      "max": [
        65531
      ],
      "min": [
        0
      ],
      "type": "SCALAR"
    },
    {
      "bufferView": 2,
      "byteOffset": 1572768,
      "componentType": 5126,
      "count": 17902,
      "max": [
        -0.19633999466896057,
        -0.77774101495742798,
        0.19495899975299835
      ],
      "min": [
        -0.3897939920425415,
        -0.8036540150642395,
        -0.40086600184440613
      ],
      "type": "VEC3"
    },
    {
      "bufferView": 2,
      "byteOffset": 1787592,
      "componentType": 5126,
      "count": 17902,
      "max": [
        0.83802640438079834,
        0.99999666213989258,
        0.65800100564956665
      ],
      "min": [
        -0.97410285472869873,
        -0.99989038705825806,
        -0.99995547533035278
      ],
      "type": "VEC3"
    },
    {
      "bufferView": 1,
      "byteOffset": 524256,
      "componentType": 5126,
      "count": 17902,
      "max": [
        0.99619501829147339,
        0.99949097633361816
      ],
      "min": [
        0.021002000197768211,
        0.018888000398874283
      ],
      "type": "VEC2"
    },
    {
      "bufferView": 0,
      "byteOffset": 1438944,
      "componentType": 5125,
      "count": 85188,
      "max": [
        17901
      ],
      "min": [
        0
      ],
      "type": "SCALAR"
    },
    {
      "bufferView": 2,
      "byteOffset": 2002416,
      "componentType": 5126,
      "count": 65532,
      "max": [
        0.17640200257301331,
        -0.78813499212265015,
        0.28000101447105408
      ],
      "min": [
        -0.26899200677871704,
        -0.83373802900314331,
        -0.38879498839378357
      ],
      "type": "VEC3"
    },
    {
      "bufferView": 2,
      "byteOffset": 2788800,
      "componentType": 5126,
      "count": 65532,
      "max": [
        0.9930000901222229,
        1,
        0.99781626462936401
      ],
      "min": [
        -0.9900166392326355,
        -0.99962276220321655,
        -0.99872773885726929
      ],
      "type": "VEC3"
    },
    {
      "bufferView": 1,
      "byteOffset": 667472,
      "componentType": 5126,
      "count": 65532,
      "max": [
        0.99664002656936646,
        0.9999690055847168
      ],
      "min": [
        0.0026229999493807554,
        0.0028560000937432051
      ],
      "type": "VEC2"
    },
    {
      "bufferView": 0,
      "byteOffset": 1779696,
      "componentType": 5125,
      "count": 369981,
      "max": [
        65531
      ],
      "min": [
        0
      ],
      "type": "SCALAR"
    },
    {
      "bufferView": 2,
      "byteOffset": 3575184,
      "componentType": 5126,
      "count": 15510,
      "max": [
        -0.165242999792099,
        -0.77785098552703857,
        0.21759499609470367
      ],
      "min": [
        -0.39112800359725952,
        -0.80564498901367188,
        -0.39364099502563477
      ],
      "type": "VEC3"
    },
    {
      "bufferView": 2,
      "byteOffset": 3761304,
      "componentType": 5126,
      "count": 15510,
      "max": [
        0.6874239444732666,
        1,
        0.60081398487091064
      ],
      "min": [
        -0.86010152101516724,
        -0.99965649843215942,
        -0.99475467205047607
      ],
      "type": "VEC3"
    },
    {
      "bufferView": 1,
      "byteOffset": 1191728,
      "componentType": 5126,
      "count": 15510,
      "max": [
        0.98737800121307373,
        0.9991919994354248
      ],
      "min": [
        0.0031340001150965691,
        0.13626599311828613
      ],
      "type": "VEC2"
    },
    {
      "bufferView": 0,
      "byteOffset": 3259620,
      "componentType": 5125,
      "count": 80277,
      "max": [
        15509
      ],
      "min": [
        0
      ],
      "type": "SCALAR"
    },
    {
      "bufferView": 2,
      "byteOffset": 3947424,
      "componentType": 5126,
      "count": 65532,
      "max": [
        0.17940300703048706,
        -0.78670299053192139,
        0.2769869863986969
      ],
      "min": [
        -0.38861200213432312,
        -0.83036798238754272,
        -0.39305201172828674
      ],
      "type": "VEC3"
    },
    {
      "bufferView": 2,
      "byteOffset": 4733808,
      "componentType": 5126,
      "count": 65532,
      "max": [
        0.99512374401092529,
        0.9999997615814209,
        0.99995332956314087
      ],
      "min": [
        -0.99984049797058105,
        -0.99919414520263672,
        -0.99999761581420898
      ],
      "type": "VEC3"
    },
    {
      "bufferView": 1,
      "byteOffset": 1315808,
      "componentType": 5126,
      "count": 65532,
      "max": [
        0.9961169958114624,
        0.99974101781845093
      ],
      "min": [
        0.00061300001107156277,
        0.0024649999104440212
      ],
      "type": "VEC2"
    },
    {
      "bufferView": 0,
      "byteOffset": 3580728,
      "componentType": 5125,
      "count": 361095,
      "max": [
        65531
      ],
      "min": [
        0
      ],
      "type": "SCALAR"
    },
    {
      "bufferView": 2,
      "byteOffset": 5520192,
      "componentType": 5126,
      "count": 16167,
      "max": [
        -0.17049400508403778,
        -0.77958601713180542,
        0.2548770010471344
      ],
      "min": [
        -0.38596099615097046,
        -0.81383299827575684,
        -0.38926801085472107
      ],
      "type": "VEC3"
    },
    {
      "bufferView": 2,
      "byteOffset": 5714196,
      "componentType": 5126,
      "count": 16167,
      "max": [
        0.49141117930412292,
        0.99999809265136719,
        0.99705088138580322
      ],
      "min": [
        -0.80476838350296021,
        -0.99944150447845459,
        -0.98386377096176147
      ],
      "type": "VEC3"
    },
    {
      "bufferView": 1,
      "byteOffset": 1840064,
      "componentType": 5126,
      "count": 16167,
      "max": [
        0.99077701568603516,
        1.0000519752502441
      ],
      "min": [
        0.0027069998905062675,
        0.005303999874740839
      ],
      "type": "VEC2"
    },
    {
      "bufferView": 0,
      "byteOffset": 5025108,
      "componentType": 5125,
      "count": 82179,
      "max": [
        16166
      ],
      "min": [
        0
      ],
      "type": "SCALAR"
    },
    {
      "bufferView": 2,
      "byteOffset": 5908200,
      "componentType": 5126,
      "count": 65532,
      "max": [
        0.18341000378131866,
        -0.78512102365493774,
        0.28073000907897949
      ],
      "min": [
        -0.3877829909324646,
        -0.83407497406005859,
        -0.39340901374816895
      ],
      "type": "VEC3"
    },
    {
      "bufferView": 2,
      "byteOffset": 6694584,
      "componentType": 5126,
      "count": 65532,
      "max": [
        0.99998170137405396,
        0.99999940395355225,
        0.99999445676803589
      ],
      "min": [
        -0.99984550476074219,
        -0.99999701976776123,
        -0.99999499320983887
      ],
      "type": "VEC3"
    },
    {
      "bufferView": 1,
      "byteOffset": 1969400,
      "componentType": 5126,
      "count": 65532,
      "max": [
        0.99681997299194336,
        1.0003210306167603
      ],
      "min": [
        0.001551999943330884,
        0.00059499999042600393
      ],
      "type": "VEC2"
    },
    {
      "bufferView": 0,
      "byteOffset": 5353824,
      "componentType": 5125,
      "count": 256737,
      "max": [
        65531
      ],
      "min": [
        0
      ],
      "type": "SCALAR"
    },
    {
      "bufferView": 2,
      "byteOffset": 7480968,
      "componentType": 5126,
      "count": 16100,
      "max": [
        -0.13744500279426575,
        -0.77767902612686157,
        0.26006099581718445
      ],
      "min": [
        -0.39422899484634399,
        -0.81551897525787354,
        -0.39887699484825134
      ],
      "type": "VEC3"
    },
    {
      "bufferView": 2,
      "byteOffset": 7674168,
      "componentType": 5126,
      "count": 16100,
      "max": [
        0.96327096223831177,
        0.99999594688415527,
        0.99905151128768921
      ],
      "min": [
        -0.98923194408416748,
        -0.99976474046707153,
        -0.9999573826789856
      ],
      "type": "VEC3"
    },
    {
      "bufferView": 1,
      "byteOffset": 2493656,
      "componentType": 5126,
      "count": 16100,
      "max": [
        0.9966769814491272,
        1.0001020431518555
      ],
      "min": [
        0.0018210000125691295,
        0.0018390000332146883
      ],
      "type": "VEC2"
    },
    {
      "bufferView": 0,
      "byteOffset": 6380772,
      "componentType": 5125,
      "count": 66774,
      "max": [
        16099
      ],
      "min": [
        0
      ],
      "type": "SCALAR"
    }
  ],
  "asset": {
    "extras": {
      "author": "Minneapolis Institute of Art (https://sketchfab.com/artsmia)",
      "license": "CC0-1.0 (http://creativecommons.org/publicdomain/zero/1.0/)",
      "source": "https://sketchfab.com/3d-models/daubignys-the-dunes-at-camiers-fe2b13b786e141a28993792e1650d753",
      "title": "Daubigny's 'The Dunes at Camiers\""
    },
    "generator": "Sketchfab-7.80.0",
    "version": "2.0"
  },
  "bufferViews": [
    {
      "buffer": 0,
      "byteLength": 6647868,
      "byteOffset": 0,
      "name": "floatBufferViews",
      "target": 34963
    },
    {
      "buffer": 0,
      "byteLength": 2622456,
      "byteOffset": 6647868,
      "byteStride": 8,
      "name": "floatBufferViews",
      "target": 34962
    },
    {
      "buffer": 0,
      "byteLength": 7867368,
      "byteOffset": 9270324,
      "byteStride": 12,
      "name": "floatBufferViews",
      "target": 34962
    }
  ],
  "buffers": [
    {
      "byteLength": 17137692,
      "uri": "scene.bin"
    }
  ],
  "images": [
    {
      "uri": "textures/material_0_baseColor.jpeg"
    },
    {
      "uri": "textures/material_1_baseColor.jpeg"
    },
    {
      "uri": "textures/material_2_baseColor.jpeg"
    },
    {
      "uri": "textures/material_3_baseColor.jpeg"
    }
  ],
  "materials": [
    {
      "doubleSided": true,
      "emissiveFactor": [
        0,
        0,
        0
      ],
      "name": "material_0",
      "pbrMetallicRoughness": {
        "baseColorFactor": [
          1,
          1,
          1,
          1
        ],
        "baseColorTexture": {
          "index": 0,
          "texCoord": 0
        },
        "metallicFactor": 0,
        "roughnessFactor": 0.59999999999999998
      }
    },
    {
      "doubleSided": true,
      "emissiveFactor": [
        0,
        0,
        0
      ],
      "name": "material_1",
      "pbrMetallicRoughness": {
        "baseColorFactor": [
          1,
          1,
          1,
          1
        ],
        "baseColorTexture": {
          "index": 1,
          "texCoord": 0
        },
        "metallicFactor": 0,
        "roughnessFactor": 0.59999999999999998
      }
    },
    {
      "doubleSided": true,
      "emissiveFactor": [
        0,
        0,
        0
      ],
      "name": "material_2",
      "pbrMetallicRoughness": {
        "baseColorFactor": [
          1,
          1,
          1,
          1
        ],
        "baseColorTexture": {
          "index": 2,
          "texCoord": 0
        },
        "metallicFactor": 0,
        "roughnessFactor": 0.59999999999999998
      }
    },
    {
      "doubleSided": true,
      "emissiveFactor": [
        0,
        0,
        0
      ],
      "name": "material_3",
      "pbrMetallicRoughness": {
        "baseColorFactor": [
          1,
          1,
          1,
          1
        ],
        "baseColorTexture": {
          "index": 3,
          "texCoord": 0
        },
        "metallicFactor": 0,
        "roughnessFactor": 0.59999999999999998
      }
    }
  ],
  "meshes": [
    {
      "primitives": [
        {
          "attributes": {
            "NORMAL": 1,
            "POSITION": 0,
            "TEXCOORD_0": 2
          },
          "indices": 3,
          "material": 0,
          "mode": 4
        }
      ]
    },
    {
      "primitives": [
        {
          "attributes": {
            "NORMAL": 5,
            "POSITION": 4,
            "TEXCOORD_0": 6
          },
          "indices": 7,
          "material": 0,
          "mode": 4
        }
      ]
    },
    {
      "primitives": [
        {
          "attributes": {
            "NORMAL": 9,
            "POSITION": 8,
            "TEXCOORD_0": 10
          },
          "indices": 11,
          "material": 1,
          "mode": 4
        }
      ]
    },
    {
      "primitives": [
        {
          "attributes": {
            "NORMAL": 13,
            "POSITION": 12,
            "TEXCOORD_0": 14
          },
          "indices": 15,
          "material": 1,
          "mode": 4
        }
      ]
    },
    {
      "primitives": [
        {
          "attributes": {
            "NORMAL": 17,
            "POSITION": 16,
            "TEXCOORD_0": 18
          },
          "indices": 19,
          "material": 2,
          "mode": 4
        }
      ]
    },
    {
      "primitives": [
        {
          "attributes": {
            "NORMAL": 21,
            "POSITION": 20,
            "TEXCOORD_0": 22
          },
          "indices": 23,
          "material": 2,
          "mode": 4
        }
      ]
    },
    {
      "primitives": [
        {
          "attributes": {
            "NORMAL": 25,
            "POSITION": 24,
            "TEXCOORD_0": 26
          },
          "indices": 27,
          "material": 3,
          "mode": 4
        }
      ]
    },
    {
      "primitives": [
        {
          "attributes": {
            "NORMAL": 29,
            "POSITION": 28,
            "TEXCOORD_0": 30
          },
          "indices": 31,
          "material": 3,
          "mode": 4
        }
      ]
    }
  ],
  "nodes": [
    {
      "children": [
        1
      ],
      "name": "RootNode (gltf orientation matrix)",
      "rotation": [
        -0.70710678118654746,
        -0,
        -0,
        0.70710678118654757
      ]
    },
    {
      "children": [
        2
      ],
      "matrix": [
        -0.055516477674245834,
        0.053067848086357117,
        -0.99704653024673462,
        0,
        0.026368996128439903,
        0.99831616878509521,
        0.051667176187038422,
        0,
        0.99810951948165894,
        -0.023422734811902046,
        -0.056822344660758972,
        0,
        -0.031053321436047554,
        0.0028532247524708509,
        -0.12587948143482208,
        1
      ],
      "name": "RootNode (model correction matrix)"
    },
    {
      "children": [
        3,
        4,
        5,
        6,
        7,
        8,
        9,
        10
      ],
      "name": "mia_86_90_Daubigny_500kfaces.obj.cleaner.gles"
    },
    {
      "mesh": 0,
      "name": ""
    },
    {
      "mesh": 1,
      "name": ""
    },
    {
      "mesh": 2,
      "name": ""
    },
    {
      "mesh": 3,
      "name": ""
    },
    {
      "mesh": 4,
      "name": ""
    },
    {
      "mesh": 5,
      "name": ""
    },
    {
      "mesh": 6,
      "name": ""
    },
    {
      "mesh": 7,
      "name": ""
    }
  ],
  "samplers": [
    {
      "magFilter": 9729,
      "minFilter": 9987,
      "wrapS": 10497,
      "wrapT": 10497
    }
  ],
  "scene": 0,
  "scenes": [
    {
      "name": "OSG_Scene",
      "nodes": [
        0
      ]
    }
  ],
  "textures": [
    {
      "sampler": 0,
      "source": 0
    },
    {
      "sampler": 0,
      "source": 1
    },
    {
      "sampler": 0,
      "source": 2
    },
    {
      "sampler": 0,
      "source": 3
    }
  ]
}

